<svg width="52" height="52" xmlns="http://www.w3.org/2000/svg" xmlns:xlink="http://www.w3.org/1999/xlink" xml:space="preserve" overflow="hidden"><defs><clipPath id="clip0"><rect x="1067" y="145" width="52" height="52"/></clipPath></defs><g clip-path="url(#clip0)" transform="translate(-1067 -145)"><path d="M1093 188.333 1093 186.167C1101.34 186.167 1108.17 179.342 1108.17 171L1110.33 171C1110.33 180.533 1102.53 188.333 1093 188.333ZM1086.5 171C1086.5 167.425 1089.43 164.5 1093 164.5 1096.57 164.5 1099.5 167.425 1099.5 171 1099.5 174.575 1096.57 177.5 1093 177.5 1089.43 177.5 1086.5 174.575 1086.5 171ZM1083.25 171 1081.08 171C1081.08 164.446 1086.45 159.083 1093 159.083L1093 161.25C1087.64 161.25 1083.25 165.637 1083.25 171ZM1077.83 171 1075.67 171C1075.67 161.467 1083.47 153.667 1093 153.667L1093 155.833C1084.66 155.833 1077.83 162.658 1077.83 171ZM1102.75 171 1104.92 171C1104.92 177.554 1099.55 182.917 1093 182.917L1093 180.75C1098.36 180.75 1102.75 176.363 1102.75 171ZM1093 150.417C1081.62 150.417 1072.42 159.625 1072.42 171 1072.42 182.375 1081.62 191.583 1093 191.583 1104.38 191.583 1113.58 182.375 1113.58 171 1113.58 159.625 1104.38 150.417 1093 150.417Z" fill="#3E6D6E"/></g></svg>