<svg width="43" height="42" xmlns="http://www.w3.org/2000/svg" xmlns:xlink="http://www.w3.org/1999/xlink" xml:space="preserve" overflow="hidden"><defs><clipPath id="clip0"><rect x="34" y="111" width="43" height="42"/></clipPath></defs><g clip-path="url(#clip0)" transform="translate(-34 -111)"><path d="M21 7C24.3827 7 27.125 9.74225 27.125 13.125 27.125 16.5077 24.3827 19.25 21 19.25 17.6173 19.25 14.875 16.5077 14.875 13.125 14.8784 9.74365 17.6186 7.00337 21 7M21 6.125C17.134 6.125 14 9.25899 14 13.125 14 16.991 17.134 20.125 21 20.125 24.866 20.125 28 16.991 28 13.125 28 9.25899 24.866 6.125 21 6.125Z" stroke="#000000" stroke-width="1.33333" transform="matrix(1.02381 0 0 1 34 111)"/><path d="M35 35.875 34.125 35.875 34.125 29.0938C34.1042 28.1645 33.6664 27.2938 32.9328 26.7229 31.0141 25.2507 28.8172 24.182 26.4744 23.5813 24.7007 23.0354 22.8558 22.7553 21 22.75 19.1447 22.7822 17.3021 23.0618 15.5208 23.5813 13.2025 24.2603 11.0153 25.3252 9.051 26.7312 8.32484 27.3028 7.89324 28.1698 7.875 29.0938L7.875 35.875 7 35.875 7 29.0938C7.0217 27.8988 7.58026 26.7771 8.52075 26.0396 10.5733 24.5662 12.8603 23.4505 15.2849 22.7399 17.143 22.1986 19.065 21.9077 21 21.875 22.939 21.8798 24.8667 22.1715 26.7203 22.7408 29.1745 23.3732 31.475 24.4962 33.4832 26.0422 34.4218 26.7796 34.9788 27.9002 35 29.0938Z" stroke="#000000" stroke-width="1.33333" transform="matrix(1.02381 0 0 1 34 111)"/></g></svg>